<?xml version="1.0" standalone="no"?>
<!DOCTYPE svg PUBLIC "-//W3C//DTD SVG 20010904//EN"
 "http://www.w3.org/TR/2001/REC-SVG-20010904/DTD/svg10.dtd">
<svg version="1.0" xmlns="http://www.w3.org/2000/svg"
 width="300.000000pt" height="261.000000pt" viewBox="0 0 300.000000 261.000000"
 preserveAspectRatio="xMidYMid meet">
<metadata>
Created by potrace 1.10, written by Peter Selinger 2001-2011
</metadata>
<g transform="translate(0.000000,261.000000) scale(0.100000,-0.100000)"
fill="#000000" stroke="none">
<path d="M426 2602 c-2 -4 -8 -58 -12 -120 l-7 -112 39 1 c35 0 37 1 15 10
-23 9 -24 12 -17 82 4 39 9 89 13 110 4 29 2 37 -10 37 -9 0 -18 -4 -21 -8z"/>
<path d="M1547 2603 c-4 -3 -7 -22 -8 -42 -1 -56 -9 -66 -57 -67 -49 -1 -92
-28 -106 -67 -22 -61 58 -79 119 -26 l35 31 0 -31 c0 -29 3 -31 33 -30 19 1
24 3 13 6 -17 5 -18 12 -12 86 3 45 9 97 12 115 5 24 3 32 -8 32 -8 0 -18 -3
-21 -7z m-19 -131 c6 -21 -64 -84 -90 -80 -36 5 -36 50 -2 77 30 24 84 26 92
3z"/>
<path d="M707 2566 c-49 -18 -67 -34 -83 -73 -25 -58 11 -105 93 -123 40 -10
128 5 139 22 4 7 -2 7 -17 2 -13 -5 -47 -9 -76 -9 -41 0 -57 5 -77 24 -30 29
-35 83 -11 118 31 45 143 52 168 12 16 -26 29 -24 25 3 -5 36 -90 49 -161 24z"/>
<path d="M150 2561 c25 -7 25 -9 23 -100 l-3 -92 93 3 c90 3 92 4 95 28 l3 25
-16 -22 c-14 -19 -25 -23 -76 -23 l-59 0 0 45 0 46 49 -7 c31 -4 51 -2 55 5 5
8 -11 11 -50 11 l-56 0 6 31 c3 17 6 35 6 40 0 5 23 9 51 9 42 0 52 -3 56 -20
6 -24 23 -16 23 11 0 18 -7 19 -112 18 -64 -1 -102 -4 -88 -8z"/>
<path d="M1660 2560 c-12 -7 -12 -12 -2 -22 9 -9 15 -9 24 0 16 16 -2 34 -22
22z"/>
<path d="M2584 2525 c-5 -26 -11 -35 -28 -36 -17 -1 -17 -2 -3 -6 12 -3 17
-15 17 -43 0 -61 7 -70 55 -70 24 0 46 4 49 9 3 4 -6 6 -19 3 -32 -6 -55 14
-55 47 0 36 10 49 45 54 l30 4 -33 2 c-32 1 -33 2 -26 36 5 28 3 35 -9 35 -10
0 -18 -13 -23 -35z"/>
<path d="M2780 2545 c-14 -8 -33 -14 -42 -15 -10 0 -18 -4 -18 -9 0 -6 12 -6
29 -1 32 9 71 28 71 35 0 8 -14 5 -40 -10z"/>
<path d="M950 2483 c-45 -23 -61 -64 -35 -93 25 -28 102 -28 139 1 29 23 35
69 12 88 -26 21 -79 23 -116 4z m88 -21 c16 -21 15 -33 -4 -60 -17 -24 -62
-30 -82 -10 -7 7 -12 24 -12 39 0 52 65 72 98 31z"/>
<path d="M1120 2490 c-24 -8 -24 -8 -2 -9 20 -1 22 -6 22 -56 0 -65 19 -75 39
-20 14 39 57 77 80 73 12 -3 16 -16 16 -53 l0 -50 35 -2 c19 -1 27 1 18 3 -19
6 -21 11 -18 65 3 68 -56 77 -112 16 l-30 -31 4 34 c3 38 -8 44 -52 30z"/>
<path d="M1644 2477 c-3 -13 -4 -41 -2 -63 3 -37 5 -39 38 -41 19 -1 28 0 20
4 -25 10 -31 26 -24 76 5 39 3 47 -10 47 -9 0 -18 -11 -22 -23z"/>
<path d="M1740 2490 l-25 -8 29 -1 28 -1 -7 -55 c-5 -46 -4 -55 9 -55 8 0 24
20 35 45 20 44 57 72 75 55 4 -5 7 -29 5 -54 -3 -37 -1 -46 11 -46 9 0 22 15
29 35 13 36 57 78 75 72 6 -2 11 -26 11 -53 0 -49 0 -49 35 -51 31 -2 32 -2
12 7 -21 9 -23 14 -17 50 13 75 -34 93 -91 36 l-34 -34 0 28 c0 20 -6 31 -20
35 -23 7 -78 -20 -88 -43 -5 -13 -8 -10 -12 13 -6 32 -20 38 -60 25z"/>
<path d="M2208 2490 c12 -5 22 -14 22 -20 0 -6 -10 -15 -22 -21 -19 -8 -17 -9
12 -4 19 3 39 10 45 16 14 14 -21 39 -54 38 -26 0 -26 0 -3 -9z"/>
<path d="M2300 2490 c-24 -8 -24 -8 -2 -9 20 -1 22 -6 22 -56 0 -65 19 -75 39
-20 14 39 57 77 80 73 12 -3 16 -16 16 -53 l0 -50 35 -2 c30 -2 32 -1 13 7
-20 8 -22 14 -17 53 11 75 -46 89 -108 27 l-30 -30 4 32 c3 36 -8 42 -52 28z"/>
<path d="M2740 2482 c-45 -22 -61 -63 -35 -92 22 -24 101 -28 131 -5 17 13 15
13 -18 3 -28 -8 -44 -8 -63 0 -26 12 -35 42 -12 42 8 0 7 4 -3 10 -13 9 -11
13 9 31 13 11 31 19 39 17 25 -5 25 -27 0 -37 l-23 -10 23 0 c53 -2 84 41 40
53 -36 9 -50 7 -88 -12z"/>
<path d="M2136 2469 c-30 -24 -34 -59 -8 -82 28 -25 132 -21 132 4 0 6 -8 5
-19 -1 -31 -16 -59 -12 -83 12 -21 21 -21 22 -2 29 10 4 13 8 7 8 -19 1 -16
28 5 40 9 6 12 11 6 11 -6 0 -23 -9 -38 -21z"/>
<path d="M1453 2314 c-16 -16 -129 -210 -252 -431 l-224 -403 -488 0 c-292 0
-489 -4 -489 -9 0 -22 57 -74 109 -100 142 -72 446 -137 774 -166 42 -4 77 -9
77 -10 0 -1 -11 -32 -25 -68 l-24 -66 27 -65 c42 -102 52 -88 52 67 l0 132
138 -8 c75 -5 280 -7 455 -5 l317 3 0 -128 c0 -112 2 -128 16 -125 9 2 27 30
40 63 l25 60 -25 68 c-18 48 -21 67 -12 67 44 0 352 34 460 50 298 46 507 116
570 190 14 17 26 36 26 41 0 5 -197 9 -490 9 l-491 0 -153 313 c-158 320 -224
434 -292 499 -55 52 -86 57 -121 22z m-1109 -940 c9 -3 16 -15 16 -25 0 -14
-7 -19 -25 -19 -29 0 -45 28 -24 41 17 11 14 10 33 3z m2269 -28 c8 -20 -18
-39 -43 -31 -20 6 -26 25 -13 38 12 12 51 7 56 -7z m-1998 -25 c0 -8 -8 -19
-17 -25 -14 -8 -21 -7 -34 6 -9 9 -13 21 -9 28 10 15 60 8 60 -9z m255 -16
c16 -19 4 -35 -25 -35 -32 0 -42 20 -20 37 24 17 30 16 45 -2z m1435 -10 c0
-22 -31 -33 -47 -17 -17 17 -1 44 24 40 15 -2 23 -10 23 -23z m-1150 -14 c0
-8 -8 -19 -17 -25 -14 -8 -21 -7 -34 6 -9 9 -13 21 -9 28 10 15 60 8 60 -9z
m862 3 c3 -9 0 -20 -8 -25 -17 -11 -21 -11 -38 0 -19 12 -6 41 19 41 11 0 23
-7 27 -16z m-582 -19 c0 -22 -31 -33 -47 -17 -17 17 -1 44 24 40 15 -2 23 -10
23 -23z m280 0 c0 -22 -31 -33 -47 -17 -17 17 -1 44 24 40 15 -2 23 -10 23
-23z"/>
<path d="M1240 926 c-25 -6 -80 -35 -122 -64 l-78 -53 0 -67 c0 -38 7 -91 15
-118 12 -43 23 -56 75 -93 122 -86 142 -91 342 -91 l178 0 73 36 c67 33 78 43
125 114 51 75 52 79 52 149 l0 71 -85 56 c-90 60 -130 73 -231 74 -48 0 -67
-5 -88 -21 l-27 -21 -23 21 c-18 17 -34 21 -92 20 -38 0 -89 -6 -114 -13z
m462 -148 c59 -23 108 -45 108 -50 0 -4 -19 -19 -43 -32 -37 -22 -62 -27 -173
-35 -132 -9 -288 -1 -381 19 -52 12 -103 54 -86 71 4 4 53 21 108 37 87 26
117 30 229 31 129 1 130 1 238 -41z"/>
<path d="M2062 469 c-31 -33 -60 -66 -64 -73 -4 -7 -38 -25 -75 -40 -57 -24
-78 -40 -130 -99 -37 -41 -63 -80 -63 -93 0 -18 23 -35 121 -89 149 -82 153
-82 243 21 57 65 66 81 72 126 6 43 15 60 57 107 28 31 56 60 64 64 41 25 -19
105 -94 126 -61 17 -71 14 -131 -50z m135 20 c35 -13 73 -48 73 -67 0 -11 -8
-13 -36 -9 -44 7 -114 51 -114 72 0 18 36 20 77 4z m-43 -74 c23 -14 52 -25
64 -25 12 0 22 -3 22 -6 0 -3 -20 -29 -44 -56 -35 -40 -46 -62 -51 -100 -6
-41 -17 -61 -67 -119 -33 -38 -70 -72 -82 -75 -29 -7 -246 110 -246 132 0 9
28 46 62 84 49 54 75 74 120 92 39 15 76 40 110 75 41 42 54 50 61 38 4 -8 27
-26 51 -40z"/>
<path d="M671 495 c-47 -27 -70 -51 -71 -74 0 -7 29 -44 65 -82 57 -61 65 -74
71 -120 6 -44 16 -62 66 -120 32 -38 72 -76 89 -85 30 -15 32 -14 152 51 67
37 126 70 130 74 14 14 -10 55 -71 122 -48 51 -74 71 -122 90 -52 20 -72 36
-123 96 -58 68 -65 73 -102 73 -25 0 -57 -10 -84 -25z m109 -7 c-1 -33 -68
-78 -117 -78 -39 0 -41 9 -10 38 42 40 127 66 127 40z m80 -74 c27 -29 66 -57
106 -75 62 -28 153 -111 181 -164 13 -23 10 -26 -75 -73 -144 -81 -150 -84
-171 -72 -10 5 -44 38 -75 73 -44 50 -58 75 -67 118 -9 39 -24 68 -55 104
l-43 51 48 17 c26 9 58 27 72 41 13 13 27 24 30 25 4 1 26 -20 49 -45z"/>
</g>
</svg>
