<?xml version="1.0" standalone="no"?>
<!DOCTYPE svg PUBLIC "-//W3C//DTD SVG 20010904//EN"
 "http://www.w3.org/TR/2001/REC-SVG-20010904/DTD/svg10.dtd">
<svg version="1.0" xmlns="http://www.w3.org/2000/svg"
 width="300.000000pt" height="424.000000pt" viewBox="0 0 300.000000 424.000000"
 preserveAspectRatio="xMidYMid meet">
<metadata>
Created by potrace 1.10, written by Peter Selinger 2001-2011
</metadata>
<g transform="translate(0.000000,424.000000) scale(0.100000,-0.100000)"
fill="#000000" stroke="none">
<path d="M2844 4068 c-16 -24 -33 -49 -37 -56 -5 -7 19 1 53 18 l62 31 -23 25
c-12 13 -23 24 -24 24 -1 0 -15 -19 -31 -42z"/>
<path d="M347 3923 c-15 -76 -30 -147 -33 -159 -5 -18 -2 -20 29 -16 l33 4 28
136 c15 76 30 145 32 155 4 14 -1 17 -28 17 l-34 0 -27 -137z"/>
<path d="M1515 4048 c-2 -7 -6 -30 -10 -50 -5 -35 -7 -37 -32 -27 -68 26 -143
-53 -143 -151 0 -68 55 -101 108 -64 12 8 22 10 22 5 0 -6 13 -11 29 -11 28 0
30 3 41 58 6 31 20 97 31 147 10 49 19 93 19 97 0 13 -60 9 -65 -4z m6 -121
c-13 -13 -15 1 -4 30 7 17 8 17 11 -1 2 -10 -1 -23 -7 -29z m-44 -5 c17 -11
-5 -110 -28 -122 -51 -28 -71 59 -24 105 26 27 33 29 52 17z m-87 -149 c0 -3
-7 0 -15 7 -8 7 -15 22 -15 34 0 18 2 17 15 -8 8 -15 15 -31 15 -33z"/>
<path d="M1636 4038 c-9 -36 -8 -38 29 -38 24 0 35 5 35 14 0 8 3 21 6 30 5
13 -1 16 -29 16 -28 0 -36 -5 -41 -22z"/>
<path d="M692 4043 c-38 -7 -97 -74 -112 -126 -33 -121 39 -201 151 -168 43
13 44 14 54 60 l7 33 -29 -22 c-65 -48 -134 -6 -119 73 16 84 91 124 143 75
27 -25 28 -24 37 24 7 36 6 37 -31 47 -39 11 -60 12 -101 4z m-70 -153 c-3
-44 0 -66 12 -85 18 -27 7 -35 -14 -10 -17 21 -14 155 4 155 1 0 0 -27 -2 -60z"/>
<path d="M125 4028 c-4 -14 -55 -268 -55 -277 0 -3 43 -5 95 -3 52 2 95 7 95
12 0 5 3 15 6 24 5 14 -3 16 -56 16 l-62 0 6 31 c3 17 6 35 6 40 0 5 27 9 60
9 45 0 60 4 60 14 0 8 2 20 5 28 4 10 -8 12 -56 10 -55 -4 -61 -2 -55 13 3 9
6 23 6 31 0 11 16 14 65 14 36 0 65 4 65 9 0 5 3 16 6 25 5 14 -6 16 -90 16
-68 0 -98 -4 -101 -12z m34 -39 c-6 -12 -9 -36 -6 -55 4 -24 1 -37 -14 -50
-14 -13 -19 -14 -15 -3 3 8 10 40 16 72 6 31 16 57 21 57 6 0 5 -9 -2 -21z
m-29 -201 c0 -5 -4 -8 -10 -8 -5 0 -10 10 -10 23 0 18 2 19 10 7 5 -8 10 -18
10 -22z"/>
<path d="M2674 4032 c-26 -3 -33 -8 -38 -33 -3 -16 -12 -29 -20 -29 -7 0 -16
-11 -18 -25 -4 -18 -1 -25 10 -25 10 0 13 -7 8 -22 -3 -13 -9 -47 -13 -77 -7
-60 7 -81 56 -81 33 0 47 9 55 36 6 18 3 21 -18 17 -33 -7 -38 6 -25 71 11 55
13 56 45 56 30 0 34 3 34 25 0 21 -5 25 -29 25 -28 0 -29 1 -20 32 5 17 8 32
6 32 -1 1 -16 0 -33 -2z m2 -73 c8 -14 -21 -43 -35 -35 -7 5 -7 13 2 26 13 23
23 25 33 9z"/>
<path d="M903 3966 c-46 -21 -73 -70 -73 -133 0 -44 4 -55 26 -72 33 -26 86
-27 125 -4 34 21 69 86 69 131 0 67 -78 109 -147 78z m72 -92 c-1 -58 -16 -84
-51 -84 -17 0 -25 7 -30 25 -13 53 22 118 60 113 18 -3 21 -10 21 -54z"/>
<path d="M1220 3973 c-8 -3 -24 -13 -34 -22 -18 -15 -19 -15 -13 2 5 14 1 17
-27 17 l-33 0 -22 -107 c-11 -60 -21 -111 -21 -114 0 -4 15 -3 33 0 31 7 32 9
46 84 13 68 18 78 39 84 41 10 48 -9 30 -92 l-15 -75 32 0 33 0 18 96 18 96
-23 19 c-24 19 -35 22 -61 12z m50 -53 c0 -11 -2 -20 -5 -20 -2 0 -9 9 -15 20
-9 16 -8 20 5 20 8 0 15 -9 15 -20z m-120 6 c0 -3 -4 -8 -10 -11 -5 -3 -10 -1
-10 4 0 6 5 11 10 11 6 0 10 -2 10 -4z"/>
<path d="M1833 3960 c-25 -15 -31 -16 -26 -4 5 12 -1 15 -28 12 l-33 -3 -22
-105 c-13 -58 -23 -107 -23 -110 -1 -4 15 -4 34 -2 l34 4 13 75 c10 63 16 77
35 86 47 21 51 -21 17 -149 -5 -18 -2 -20 30 -16 34 4 35 4 47 74 13 71 28 98
55 98 28 0 28 -36 -2 -155 -5 -19 -1 -21 29 -17 l35 4 17 88 c13 66 14 93 6
108 -17 32 -47 36 -87 13 -34 -21 -34 -21 -54 -1 -25 25 -37 25 -77 0z m-50
-35 c-3 -9 -8 -14 -10 -11 -3 3 -2 9 2 15 9 16 15 13 8 -4z m117 5 c11 -7 12
-12 3 -21 -8 -8 -14 -6 -22 10 -12 22 -5 27 19 11z m120 -5 c0 -8 -2 -15 -4
-15 -2 0 -6 7 -10 15 -3 8 -1 15 4 15 6 0 10 -7 10 -15z"/>
<path d="M2185 3973 c-83 -21 -124 -138 -71 -200 22 -25 31 -28 85 -28 66 0
76 6 87 48 l7 29 -31 -16 c-41 -21 -75 -20 -95 2 -31 34 -21 40 57 36 73 -4
74 -4 80 22 19 76 -38 127 -119 107z m55 -47 c0 -2 3 -11 6 -19 4 -12 -5 -16
-40 -19 -25 -2 -46 -2 -46 0 0 21 26 42 50 42 17 0 30 -2 30 -4z m-109 -79
c-8 -8 -11 -5 -11 9 0 27 14 41 18 19 2 -9 -1 -22 -7 -28z"/>
<path d="M2463 3965 c-18 -8 -33 -10 -33 -5 0 6 -13 10 -30 10 -23 0 -31 -5
-35 -22 -3 -13 -13 -62 -23 -110 l-19 -88 33 0 c35 0 32 -4 54 102 10 49 15
59 36 64 42 11 48 -7 30 -86 -9 -40 -16 -75 -16 -79 0 -4 15 -5 33 -3 32 4 32
4 49 88 17 83 13 134 -11 134 -5 0 -15 2 -23 5 -7 2 -28 -2 -45 -10z m57 -47
c0 -19 -2 -20 -10 -8 -13 19 -13 30 0 30 6 0 10 -10 10 -22z m-110 8 c0 -3 -4
-8 -10 -11 -5 -3 -10 -1 -10 4 0 6 5 11 10 11 6 0 10 -2 10 -4z"/>
<path d="M2831 3963 c-52 -27 -76 -66 -76 -123 0 -72 26 -95 106 -95 64 0 89
16 89 56 0 16 -3 17 -27 3 -41 -21 -79 -18 -97 8 -9 12 -16 25 -16 29 0 4 35
6 78 5 l77 -1 3 41 c6 76 -64 115 -137 77z m77 -54 c2 -13 -7 -18 -42 -21 -26
-2 -46 -1 -46 1 0 2 8 13 17 23 20 23 66 20 71 -3z m-103 -48 c-9 -16 -25 -3
-18 15 4 10 9 12 15 6 6 -6 7 -15 3 -21z"/>
<path d="M1601 3863 c-11 -60 -21 -111 -21 -114 0 -4 14 -4 32 0 31 6 33 9 48
86 9 44 20 92 23 108 7 25 5 27 -26 27 l-34 0 -22 -107z"/>
<path d="M1448 3622 c-12 -15 -120 -201 -238 -412 l-214 -385 -473 2 c-518 3
-499 6 -449 -54 68 -80 333 -157 681 -198 77 -9 159 -18 182 -21 l42 -5 -24
-65 -24 -65 26 -65 c15 -35 32 -63 37 -61 7 2 11 50 11 131 l0 127 80 -8 c44
-4 243 -8 443 -8 l362 0 0 -122 c0 -145 12 -159 51 -60 l25 62 -23 60 c-12 33
-22 63 -22 68 -1 4 24 7 54 7 131 0 478 48 653 91 181 44 322 118 322 170 0
18 -14 19 -472 17 l-473 -2 -155 310 c-85 171 -180 346 -211 390 -86 122 -144
151 -191 96z m119 -51 c68 -70 144 -208 341 -621 27 -58 60 -117 72 -133 l22
-27 406 0 c224 0 427 0 452 0 l45 0 -25 -20 c-29 -23 -134 -67 -205 -86 -61
-17 -65 -17 -65 -2 0 18 -41 58 -60 58 -8 0 -26 -7 -39 -16 -19 -13 -22 -22
-17 -49 l6 -33 -92 -14 -93 -14 -3 26 c-8 56 -62 79 -97 40 -12 -14 -16 -28
-12 -49 l6 -29 -67 -7 c-37 -3 -79 -8 -94 -10 -26 -4 -27 -3 -21 26 11 55 -47
90 -89 52 -20 -18 -24 -53 -7 -70 20 -20 -22 -28 -121 -23 -54 3 -90 9 -82 13
31 20 -1 87 -41 87 -42 0 -78 -66 -47 -85 26 -16 -9 -25 -96 -25 -85 0 -112 8
-84 25 29 18 -5 85 -43 85 -42 0 -78 -66 -47 -85 25 -16 2 -20 -95 -17 -58 2
-105 7 -105 11 0 5 7 14 15 21 20 17 19 30 -7 57 -27 28 -59 29 -83 2 -16 -16
-17 -25 -8 -48 l10 -29 -56 -5 c-31 -2 -64 -1 -73 4 -9 5 -32 9 -50 9 -27 1
-30 2 -15 11 26 16 22 65 -8 85 -23 15 -27 15 -51 0 -32 -22 -40 -44 -25 -69
12 -19 11 -19 -56 -13 -96 10 -117 16 -104 29 27 27 -2 87 -42 87 -30 0 -57
-29 -57 -61 0 -18 -4 -27 -13 -24 -6 2 -38 9 -70 15 -53 11 -58 14 -53 34 8
31 -19 66 -51 66 -29 0 -63 -25 -63 -47 0 -7 -2 -13 -5 -13 -17 0 -164 63
-185 80 -25 20 -24 20 426 20 417 0 452 1 466 18 8 9 110 188 227 397 116 209
221 387 231 397 27 22 54 13 97 -31z m-1169 -872 c3 -19 -21 -31 -43 -23 -8 4
-15 15 -15 26 0 15 6 19 27 16 16 -2 29 -10 31 -19z m2177 -14 c0 -22 -31 -33
-47 -17 -17 17 -1 44 24 40 15 -2 23 -10 23 -23z m-1930 -5 c8 -13 -12 -40
-29 -40 -22 0 -39 18 -33 34 7 18 52 22 62 6z m245 -25 c16 -19 4 -35 -25 -35
-32 0 -42 20 -20 37 24 17 30 16 45 -2z m1395 -4 c0 -8 -8 -19 -17 -25 -14 -8
-21 -7 -34 6 -9 9 -13 21 -9 28 10 15 60 8 60 -9z m-1117 -23 c4 -21 -34 -34
-54 -17 -11 9 -12 15 -2 26 15 18 52 13 56 -9z m837 3 c0 -8 -8 -19 -17 -25
-14 -8 -21 -7 -34 6 -9 9 -13 21 -9 28 10 15 60 8 60 -9z m-560 -1 c8 -13 -12
-40 -29 -40 -22 0 -39 18 -33 34 7 18 52 22 62 6z m270 -15 c0 -23 -30 -32
-51 -14 -11 9 -12 15 -2 26 17 20 53 12 53 -12z"/>
<path d="M1286 2298 c-46 -7 -80 -23 -148 -66 l-88 -57 0 -53 c0 -29 8 -80 17
-113 16 -59 19 -63 91 -111 114 -77 118 -78 317 -78 l175 0 69 35 c62 31 75
43 120 110 48 72 51 81 51 139 0 72 -5 79 -110 144 -49 30 -82 43 -137 51
-102 16 -111 14 -144 -18 l-29 -29 -24 29 c-27 32 -51 35 -160 17z m149 -48
c10 -11 25 -20 32 -20 8 0 26 9 40 20 18 14 41 20 77 20 79 -1 131 -17 201
-63 64 -41 65 -43 66 -89 1 -27 2 -54 3 -61 0 -7 -17 -41 -39 -76 -34 -54 -49
-68 -107 -97 l-68 -34 -165 0 c-186 0 -199 3 -302 73 -73 48 -83 70 -83 171 0
63 3 73 23 85 132 84 144 88 243 90 49 1 64 -3 79 -19z"/>
<path d="M1228 2181 c-107 -32 -126 -47 -109 -90 19 -45 41 -59 117 -75 110
-23 238 -29 369 -17 102 10 127 16 164 39 91 56 79 81 -67 137 -93 35 -95 35
-240 34 -129 -1 -158 -4 -234 -28z m472 -37 c52 -20 98 -40 103 -44 4 -3 -18
-19 -49 -35 -54 -28 -64 -29 -225 -33 -220 -6 -348 14 -380 59 -15 22 -17 30
-7 34 126 43 189 54 323 54 138 1 142 0 235 -35z"/>
<path d="M2099 1901 c-9 -3 -41 -36 -72 -72 -45 -54 -66 -70 -117 -90 -50 -20
-74 -37 -126 -95 -35 -40 -64 -81 -64 -92 0 -15 30 -36 122 -86 145 -80 147
-80 238 26 50 57 60 76 66 117 5 43 15 59 72 121 58 64 64 73 54 95 -20 43
-132 93 -173 76z m88 -40 c47 -22 73 -58 49 -67 -34 -13 -136 41 -136 72 0 19
37 17 87 -5z m-10 -84 c23 -6 43 -14 43 -17 0 -3 -20 -25 -44 -49 -37 -37 -46
-52 -51 -95 -6 -43 -16 -60 -67 -118 -33 -37 -68 -70 -77 -73 -20 -6 -241 112
-241 129 0 6 26 40 57 75 44 49 73 71 123 94 44 20 79 44 107 77 l43 48 31
-29 c18 -17 52 -35 76 -42z"/>
<path d="M714 1881 c-47 -21 -84 -57 -84 -81 0 -9 25 -40 54 -69 57 -56 70
-80 80 -142 8 -43 108 -166 151 -183 27 -11 38 -7 150 54 66 37 121 74 123 83
2 8 -25 48 -59 87 -51 59 -75 79 -133 106 -58 26 -81 45 -126 98 -61 74 -82
81 -156 47z m91 -12 c9 -14 -24 -49 -62 -65 -30 -13 -83 -19 -83 -10 0 28 40
58 100 77 35 10 38 10 45 -2z m185 -152 c53 -23 142 -105 168 -154 11 -19 8
-24 -21 -41 -85 -51 -186 -102 -201 -102 -10 0 -46 30 -81 68 -55 57 -65 74
-70 115 -5 36 -18 61 -51 102 l-44 54 39 12 c22 7 55 24 73 40 l33 28 50 -49
c28 -27 75 -59 105 -73z"/>
</g>
</svg>
